<svg xmlns="http://www.w3.org/2000/svg" viewBox="430 200 420 420" fill="#2E7B4D"><path d="M611.5 229.6c-47.9 5.8-92.2 31.6-122.5 71.4-8 10.5-12.1 17.1-18.6 30-23 46.1-25.1 105.1-5.4 153 3.7 8.9 12.8 26.4 17.2 32.9 10.3 15.1 27.8 33.9 41.5 44.4 21.1 16.1 47.5 28.2 73.8 33.5 16.8 3.5 25.9 4.2 53.6 4.2 24.5 0 26.7-.1 28.2-1.8 1.5-1.6 1.7-4.6 1.7-21 0-18.1-.1-19.2-2.1-21.1-1.9-1.8-4.1-1.9-33.2-2.4-23.9-.3-32.8-.8-38.2-2.1-27-6.2-49.9-18.9-69.6-38.6-20.5-20.6-33.4-45.1-38.6-73.4-2.3-12.5-2.3-37.9.1-50.4 10.8-58.5 56.2-103.3 114.1-112.7 7-1.2 19.6-1.5 56.8-1.5 26.2 0 47.7.3 47.7.6s-11.1 12-24.7 25.9l-24.7 25.3-25.1.5c-26 .4-28.5.7-41.7 5.7-8.3 3.1-20.3 11.3-28.4 19.4-17.1 17-25.4 37.3-25.4 61.6 0 38 22.7 69.7 58.8 82.1l9.7 3.4 30.3.3c27.7.3 30.5.2 32.3-1.4 1.7-1.6 1.9-3.3 1.9-21.4 0-17.1-.2-19.9-1.7-21.1-1.2-1.1-7.9-1.5-29.2-1.9l-27.7-.5-6.5-3.2c-8-3.9-15-11.1-18.7-19.1-2.5-5.2-2.7-6.8-2.7-17.7 0-10.8.3-12.5 2.7-17.7 3.1-6.7 9.3-13.8 15.1-17.1 8.7-5.1 12.9-5.7 42.3-5.7h27.2l32.4-33.2c17.7-18.3 41-42 51.5-52.8l19.3-19.5v-17.1c0-16.5-.1-17.1-2.3-19.2l-2.3-2.2-79 .1c-59.4.1-81.6.4-89.9 1.5m116.4 304.3-2.9 2.9v57.3l2.5 2.4 2.4 2.5h58.8l2.4-2.6 2.4-2.6.3-27.1c.2-17.9-.1-27.9-.8-29.7-2.4-5.7-4.2-6-34.5-6h-27.7z"/></svg>
