<svg xmlns="http://www.w3.org/2000/svg" viewBox="0 0 1248 832"><path fill="#fff" d="M0 416v416h1248V0H0zm783.5-186.5c2.5 2.4 2.5 2.6 2.5 20.2l-.1 17.8-52.2 52.8-52.2 52.7-29 .3-29 .2-6.7 3.2c-8.1 3.8-14.2 9.8-18.3 17.9-2.8 5.6-3 6.6-3 17.9 0 11.6.1 12.3 3.3 18.7 3.4 7 9.7 13.5 16.2 16.8 6.4 3.2 13.6 4 37.9 4 22.6 0 24 .1 26.5 2.1l2.6 2v20c0 18.6-.1 20-2 21.9s-3.3 2-29.5 2c-21.3 0-29.4-.4-35.3-1.6-16.8-3.4-32.1-12.2-44.8-25.7-9.3-9.8-15.1-19.5-19.5-32.7-2.8-8.3-3.3-11.2-3.7-23.1-.9-28.1 6.4-46.9 26.2-66.4 10.4-10.2 17.1-14.9 27.4-19.1 13-5.2 16.3-5.7 43-6.2 24.5-.4 25.3-.4 26.7-2.5.9-1.2 11.8-12.5 24.3-25l22.7-22.8-51.5.4c-44.1.3-52.5.6-58.7 2.1-27.5 6.4-49.1 18.3-68.3 37.6-20.3 20.2-32 42-38.1 71-3.1 14.7-3.1 40-.1 54.6 6.2 29.3 18.1 51.2 38.7 71.8 14.6 14.4 32.4 25.6 51.7 32.4 15.7 5.6 22.5 6.4 55.9 7.1 28.3.6 30.9.7 32.8 2.5 2 1.8 2.1 2.9 2.1 21.6 0 18.6-.1 19.7-2.1 21.9l-2.2 2.3-32.6-.5c-30.6-.4-33.4-.6-45.1-3.1-44.8-9.6-81.7-31.9-108.3-65.4-21.4-27-34.8-58-39.8-92.7-1.7-11.5-1.7-38.2 0-50.5 2-14.5 7.4-34.2 13-47.5 9.2-21.7 20.6-38.7 38.1-56.8 30.8-32 69.2-51.1 111.6-55.6 4.4-.5 43.6-.9 87.2-1l79.3-.1zm6.3 302.1c4.9 3.4 5.2 5.4 5.2 33.9 0 28.2-.4 31-4.9 33.5-1.2.6-13.1 1-31.4 1h-29.5l-2.6-3.1-2.6-3.1v-57l3.4-3.4 3.4-3.4h28.4c24.1 0 28.7.2 30.6 1.6"/><path fill="#d4d4d4" d="M627.3 227.7c2.6.2 6.8.2 9.5 0 2.6-.2.4-.3-4.8-.3s-7.4.1-4.7.3m154.7.7c0 .2.8 1 1.8 1.7 1.5 1.3 1.6 1.2.3-.4s-2.1-2.1-2.1-1.3m.9 41.3-2.4 2.8 2.8-2.4c1.5-1.4 2.7-2.6 2.7-2.8 0-.8-.8-.1-3.1 2.4m-13.4 13.5-10 10.3 10.3-10c9.5-9.3 10.7-10.5 9.9-10.5-.1 0-4.7 4.6-10.2 10.2m-92.6 32.5-2.4 2.8 2.8-2.4c1.5-1.4 2.7-2.6 2.7-2.8 0-.8-.8-.1-3.1 2.4m49.6 11.5-5 5.3 5.3-5c4.8-4.6 5.7-5.5 4.9-5.5-.1 0-2.5 2.4-5.2 5.2m-275.4 66.4c0 1.1.3 1.4.6.6.3-.7.2-1.6-.1-1.9-.3-.4-.6.2-.5 1.3m-.8 19.9c0 4.4.2 6.1.4 3.7.2-2.3.2-5.9 0-8-.2-2-.4-.1-.4 4.3m144-.5c0 2.5.2 3.5.4 2.2.2-1.2.2-3.2 0-4.5-.2-1.2-.4-.2-.4 2.3m-96.2 11.6c0 1.1.3 1.4.6.6.3-.7.2-1.6-.1-1.9-.3-.4-.6.2-.5 1.3m33.9 80.8c0 .2.8 1 1.8 1.7 1.5 1.3 1.6 1.2.3-.4s-2.1-2.1-2.1-1.3m-27 41.1c1.9 1.9 3.6 3.5 3.9 3.5s-1-1.6-2.9-3.5-3.6-3.5-3.9-3.5 1 1.6 2.9 3.5m114.8 5.2c.7.3 1.6.2 1.9-.1.4-.3-.2-.6-1.3-.5-1.1 0-1.4.3-.6.6m-8 47c.7.3 1.6.2 1.9-.1.4-.3-.2-.6-1.3-.5-1.1 0-1.4.3-.6.6m9 1c.7.3 1.6.2 1.9-.1.4-.3-.2-.6-1.3-.5-1.1 0-1.4.3-.6.6"/><path fill="#aad4d4" d="M642.8 227.7c1.2.2 3 .2 4 0 .9-.3-.1-.5-2.3-.4-2.2 0-3 .2-1.7.4m38.6 83.5-1.9 2.3 2.3-1.9c2.1-1.8 2.7-2.6 1.9-2.6-.2 0-1.2 1-2.3 2.2m112.9 236.3c0 3.8.2 5.3.4 3.2.2-2 .2-5.2 0-7-.2-1.7-.4-.1-.4 3.8"/><path fill="#aad4aa" d="M680.8 227.7c18.2.2 48.2.2 66.5 0 18.2-.1 3.3-.2-33.3-.2s-51.5.1-33.2.2m74.2 69.8c-2.4 2.5-4.2 4.5-3.9 4.5s2.5-2 4.9-4.5 4.2-4.5 3.9-4.5-2.5 2-4.9 4.5m-69.1 9.2-2.4 2.8 2.8-2.4c1.5-1.4 2.7-2.6 2.7-2.8 0-.8-.8-.1-3.1 2.4m-147.5 7.5-1.9 2.3 2.3-1.9c2.1-1.8 2.7-2.6 1.9-2.6-.2 0-1.2 1-2.3 2.2m98.9 58.5c4.3.2 11 .2 15 0 4-.1.5-.3-7.8-.3-8.2 0-11.5.2-7.2.3m29 0c2.6.2 6.8.2 9.5 0 2.6-.2.4-.3-4.8-.3s-7.4.1-4.7.3m128.1 198.8c0 9.9.2 13.8.3 8.7.2-5.1.2-13.2 0-18-.1-4.8-.3-.6-.3 9.3"/><path fill="#aaa" d="M785.3 237.5c0 2.7.2 3.8.4 2.2.2-1.5.2-3.7 0-5-.2-1.2-.4 0-.4 2.8m-135 37.2c12.6.2 32.8.2 45 0 12.2-.1 2-.2-22.8-.2-24.7 0-34.7.1-22.2.2m39.6 28c-1.3 1.6-1.2 1.7.4.4.9-.7 1.7-1.5 1.7-1.7 0-.8-.8-.3-2.1 1.3m57 3-3.4 3.8 3.8-3.4c3.4-3.3 4.2-4.1 3.4-4.1-.2 0-1.9 1.7-3.8 3.7m-205 5c-1.3 1.6-1.2 1.7.4.4.9-.7 1.7-1.5 1.7-1.7 0-.8-.8-.3-2.1 1.3M707.5 346c-6.6 6.6-11.7 12-11.5 12 .3 0 5.9-5.4 12.5-12s11.7-12 11.5-12c-.3 0-5.9 5.4-12.5 12m-16.6 16.7c-1.3 1.6-1.2 1.7.4.4s2.1-2.1 1.3-2.1c-.2 0-1 .8-1.7 1.7m-31.1 10c.7.3 1.6.2 1.9-.1.4-.3-.2-.6-1.3-.5-1.1 0-1.4.3-.6.6m14 80c.7.3 1.6.2 1.9-.1.4-.3-.2-.6-1.3-.5-1.1 0-1.4.3-.6.6m-30.5 100c5.9.2 15.5.2 21.5 0 5.9-.1 1-.3-10.8-.3s-16.7.2-10.7.3m80.9 22.8c0 1.6.2 2.2.5 1.2.2-.9.2-2.3 0-3-.3-.6-.5.1-.5 1.8m.1 10c0 2.7.2 3.8.4 2.2.2-1.5.2-3.7 0-5-.2-1.2-.4 0-.4 2.8m-99.5 14.2c.7.3 1.6.2 1.9-.1.4-.3-.2-.6-1.3-.5-1.1 0-1.4.3-.6.6"/><path fill="#80aaaa" d="M785.4 254c0 6.9.1 9.7.3 6.2.2-3.4.2-9 0-12.5-.2-3.4-.3-.6-.3 6.3m-277 24.2-1.9 2.3 2.3-1.9c2.1-1.8 2.7-2.6 1.9-2.6-.2 0-1.2 1-2.3 2.2m185.5 20.5-2.4 2.8 2.8-2.4c1.5-1.4 2.7-2.6 2.7-2.8 0-.8-.8-.1-3.1 2.4m47.5 12.5-1.9 2.3 2.3-1.9c2.1-1.8 2.7-2.6 1.9-2.6-.2 0-1.2 1-2.3 2.2m-112.1 14.5c.9.2 2.5.2 3.5 0 .9-.3.1-.5-1.8-.5s-2.7.2-1.7.5m25 0c2.6.2 6.7.2 9 0s.2-.3-4.8-.3c-4.9 0-6.8.1-4.2.3m39.6 34c-1.3 1.6-1.2 1.7.4.4s2.1-2.1 1.3-2.1c-.2 0-1 .8-1.7 1.7m-8 8-3.4 3.8 3.8-3.4c3.4-3.3 4.2-4.1 3.4-4.1-.2 0-1.9 1.7-3.8 3.7m-45.7 85c5.9.2 15.8.2 22 0 6.2-.1 1.4-.3-10.7-.3s-17.2.2-11.3.3m84 88.8c0 1.6.2 2.2.5 1.2.2-.9.2-2.3 0-3-.3-.6-.5.1-.5 1.8m.1 7c0 2.2.2 3 .4 1.7.2-1.2.2-3 0-4-.3-.9-.5.1-.4 2.3m-95 4.2c.9.2 2.3.2 3 0 .6-.3-.1-.5-1.8-.5-1.6 0-2.2.2-1.2.5m95 12.3c0 4.7.2 6.6.4 4.2.2-2.3.2-6.1 0-8.5-.2-2.3-.4-.4-.4 4.3m-.2 14.6c0 1.1.3 1.4.6.6.3-.7.2-1.6-.1-1.9-.3-.4-.6.2-.5 1.3"/><path fill="#80aa80" d="m504.4 282.2-1.9 2.3 2.3-1.9c2.1-1.8 2.7-2.6 1.9-2.6-.2 0-1.2 1-2.3 2.2m133.4 43.5c2.3.2 6.1.2 8.5 0 2.3-.2.4-.4-4.3-.4s-6.6.2-4.2.4m96 205c.7.3 1.6.2 1.9-.1.4-.3-.2-.6-1.3-.5-1.1 0-1.4.3-.6.6m-9.6 23.8c0 1.6.2 2.2.5 1.2.2-.9.2-2.3 0-3-.3-.6-.5.1-.5 1.8"/><path fill="#558080" d="M731.9 320.7c-1.3 1.6-1.2 1.7.4.4.9-.7 1.7-1.5 1.7-1.7 0-.8-.8-.3-2.1 1.3m32.9 210c2.9.2 7.4.2 10 0s.2-.3-5.3-.3-7.6.1-4.7.3"/><path fill="#558055" d="m715.4 277.2-1.9 2.3 2.3-1.9c1.2-1.1 2.2-2.1 2.2-2.3 0-.8-.8-.2-2.6 1.9m57 2-1.9 2.3 2.3-1.9c1.2-1.1 2.2-2.1 2.2-2.3 0-.8-.8-.2-2.6 1.9m-43.5 44.5c-1.3 1.6-1.2 1.7.4.4s2.1-2.1 1.3-2.1c-.2 0-1 .8-1.7 1.7m-231.8 95.9c0 1.1.3 1.4.6.6.3-.7.2-1.6-.1-1.9-.3-.4-.6.2-.5 1.3M681.4 476c0 10.2.2 14.3.3 9.2.2-5 .2-13.4 0-18.5-.1-5-.3-.9-.3 9.3m-53.1 23.7c.9.2 2.3.2 3 0 .6-.3-.1-.5-1.8-.5-1.6 0-2.2.2-1.2.5m14.5 100c5.6.2 14.8.2 20.5 0 5.6-.1 1-.3-10.3-.3s-15.9.2-10.2.3"/><path fill="#008055" d="m764.4 287.2-2.9 3.3 3.3-2.9c3-2.8 3.7-3.6 2.9-3.6-.2 0-1.6 1.5-3.3 3.2m-87 29-2.9 3.3 3.3-2.9c3-2.8 3.7-3.6 2.9-3.6-.2 0-1.6 1.5-3.3 3.2m48 11-1.9 2.3 2.3-1.9c1.2-1.1 2.2-2.1 2.2-2.3 0-.8-.8-.2-2.6 1.9m-228.3 77.4c0 1.1.3 1.4.6.6.3-.7.2-1.6-.1-1.9-.3-.4-.6.2-.5 1.3m145.1 95.1c5.9.2 15.8.2 22 0 6.2-.1 1.4-.3-10.7-.3s-17.2.2-11.3.3m39.2 76.3c0 9.1.2 12.8.3 8.2.2-4.5.2-11.9 0-16.5-.1-4.5-.3-.8-.3 8.3m68.4 23.7c5.6.2 14.8.2 20.5 0 5.6-.1 1-.3-10.3-.3s-15.9.2-10.2.3m33 0c.7.3 1.6.2 1.9-.1.4-.3-.2-.6-1.3-.5-1.1 0-1.4.3-.6.6"/><path fill="#050" d="M611.5 229.6c-47.9 5.8-92.2 31.6-122.5 71.4-8 10.5-12.1 17.1-18.6 30-23 46.1-25.1 105.1-5.4 153 3.7 8.9 12.8 26.4 17.2 32.9 10.3 15.1 27.8 33.9 41.5 44.4 21.1 16.1 47.5 28.2 73.8 33.5 16.8 3.5 25.9 4.2 53.6 4.2 24.5 0 26.7-.1 28.2-1.8 1.5-1.6 1.7-4.6 1.7-21 0-18.1-.1-19.2-2.1-21.1-1.9-1.8-4.1-1.9-33.2-2.4-23.9-.3-32.8-.8-38.2-2.1-27-6.2-49.9-18.9-69.6-38.6-20.5-20.6-33.4-45.1-38.6-73.4-2.3-12.5-2.3-37.9.1-50.4 10.8-58.5 56.2-103.3 114.1-112.7 7-1.2 19.6-1.5 56.8-1.5 26.2 0 47.7.3 47.7.6s-11.1 12-24.7 25.9l-24.7 25.3-25.1.5c-26 .4-28.5.7-41.7 5.7-8.3 3.1-20.3 11.3-28.4 19.4-17.1 17-25.4 37.3-25.4 61.6 0 38 22.7 69.7 58.8 82.1l9.7 3.4 30.3.3c27.7.3 30.5.2 32.3-1.4 1.7-1.6 1.9-3.3 1.9-21.4 0-17.1-.2-19.9-1.7-21.1-1.2-1.1-7.9-1.5-29.2-1.9l-27.7-.5-6.5-3.2c-8-3.9-15-11.1-18.7-19.1-2.5-5.2-2.7-6.8-2.7-17.7 0-10.8.3-12.5 2.7-17.7 3.1-6.7 9.3-13.8 15.1-17.1 8.7-5.1 12.9-5.7 42.3-5.7h27.2l32.4-33.2c17.7-18.3 41-42 51.5-52.8l19.3-19.5v-17.1c0-16.5-.1-17.1-2.3-19.2l-2.3-2.2-79 .1c-59.4.1-81.6.4-89.9 1.5m116.4 304.3-2.9 2.9v57.3l2.5 2.4 2.4 2.5h58.8l2.4-2.6 2.4-2.6.3-27.1c.2-17.9-.1-27.9-.8-29.7-2.4-5.7-4.2-6-34.5-6h-27.7z"/><path fill="#55aa80" d="m705.5 287.2-8 8.3 8.3-8c4.5-4.4 8.2-8.1 8.2-8.2 0-.8-1.1.3-8.5 7.9m-35.6 36.5-2.4 2.8 2.8-2.4c2.5-2.3 3.2-3.1 2.4-3.1-.2 0-1.4 1.2-2.8 2.7m-97 27c-1.3 1.6-1.2 1.7.4.4s2.1-2.1 1.3-2.1c-.2 0-1 .8-1.7 1.7m-25.8 58.9c0 1.1.3 1.4.6.6.3-.7.2-1.6-.1-1.9-.3-.4-.6.2-.5 1.3m-49.8 3.9c0 2.2.2 3 .4 1.7.2-1.2.2-3 0-4-.3-.9-.5.1-.4 2.3m49.9 1.5c0 1.4.2 1.9.5 1.2.2-.6.2-1.8 0-2.5-.3-.6-.5-.1-.5 1.3m-9.2 97.5c1.3 1.4 2.6 2.5 2.8 2.5.3 0-.5-1.1-1.8-2.5s-2.6-2.5-2.8-2.5c-.3 0 .5 1.1 1.8 2.5m203.8 18.2c3.4.2 9 .2 12.5 0 3.4-.2.6-.3-6.3-.3s-9.7.1-6.2.3m38.5 0c.9.2 2.3.2 3 0 .6-.3-.1-.5-1.8-.5-1.6 0-2.2.2-1.2.5"/><path fill="#055" d="m752.9 298.7-3.4 3.8 3.8-3.4c3.4-3.3 4.2-4.1 3.4-4.1-.2 0-1.9 1.7-3.8 3.7m-31.5 32.5-1.9 2.3 2.3-1.9c1.2-1.1 2.2-2.1 2.2-2.3 0-.8-.8-.2-2.6 1.9m-270.3 74.4c0 1.1.3 1.4.6.6.3-.7.2-1.6-.1-1.9-.3-.4-.6.2-.5 1.3m284.2 194.1c.9.2 2.5.2 3.5 0 .9-.3.1-.5-1.8-.5s-2.7.2-1.7.5"/><path fill="#ffffd4" d="M509 550.4c0 .2.8 1 1.8 1.7 1.5 1.3 1.6 1.2.3-.4s-2.1-2.1-2.1-1.3"/></svg>